<?xml version="1.0" encoding="utf-8"?>
<!-- Generator: Adobe Illustrator 16.0.0, SVG Export Plug-In . SVG Version: 6.00 Build 0)  -->
<!DOCTYPE svg PUBLIC "-//W3C//DTD SVG 1.1//EN" "http://www.w3.org/Graphics/SVG/1.1/DTD/svg11.dtd">
<svg version="1.1" id="Layer_1" xmlns="http://www.w3.org/2000/svg" xmlns:xlink="http://www.w3.org/1999/xlink" x="0px" y="0px"
	 width="80px" height="80px" viewBox="0 0 80 80" enable-background="new 0 0 80 80" xml:space="preserve">
<g>
	<path fill="#FFF" d="M35.64,23.612c4.355-1.687,4.433-9.381,2.68-12.783C36.567,7.427,31.516,3.2,26.465,6.19
		c-5.052,2.989-7.113,8.144-3.299,12.577C26.981,23.2,32.444,24.849,35.64,23.612z"/>
	<path fill="#FFF" d="M40.073,51.961c-5.876-8.145-11.729-11.977-17.937-13.092c-9.175-1.65-14.776,5.463-12.714,15.773
		C11.483,64.95,37.461,80,37.461,80h15.911c0,0,0,0-0.619-3.608S45.949,60.104,40.073,51.961z"/>
	<path fill="#FFF" d="M67.186,54.642c0,0-3.919,2.885-4.434,12.679c-0.186,3.514-0.148,7.367-0.089,9.893
		C62.702,78.903,62.752,80,62.752,80h15.154c0,0-0.826-5.154-3.507-12.165C71.72,60.826,67.186,54.642,67.186,54.642z"/>
	<path fill="#FFF" d="M8.517,70.723c-3.608-5.258-2.749-9.278-3.162-13.813c0,0-3.56,6.201-4.123,12.782
		C0.35,80,3.294,80,7.83,80c4.536,0,13.367,0,13.367,0S12.125,75.979,8.517,70.723z"/>
	<path fill="#FFF" d="M64.298,8.87c0,0,0.619-8.66-6.392-8.866c-7.009-0.206-7.524,7.423-7.524,7.423
		C54.299,5.881,64.298,8.87,64.298,8.87z"/>
	<path fill="#FFF" d="M65.639,33.611c1.512-3.849,1.196-8.797-1.326-11.546c-2.523-2.749-14.618-6.323-15.717,6.46
		c-0.296,3.426,2.473,7.422,5.772,8.935C57.666,38.971,64.127,37.459,65.639,33.611z"/>
	<path fill="#FFF" d="M76.086,20.003c-3.025-5.36-7.011-3.024-3.987,1.924C73.708,24.563,79.109,25.364,76.086,20.003z"/>
	
		<ellipse transform="matrix(0.9537 -0.3007 0.3007 0.9537 -5.978 24.3929)" fill="#FFF" cx="76.259" cy="31.618" rx="2.608" ry="3.192"/>
</g>
</svg>
