<?xml version="1.0" encoding="utf-8"?>
<!-- Generator: Adobe Illustrator 24.1.0, SVG Export Plug-In . SVG Version: 6.00 Build 0)  -->
<svg version="1.1" id="Layer_1" xmlns="http://www.w3.org/2000/svg" xmlns:xlink="http://www.w3.org/1999/xlink" x="0px" y="0px"
	 viewBox="0 0 512 512" style="enable-background:new 0 0 512 512;" xml:space="preserve">
<style type="text/css">
	.st0{fill:#777777;}
</style>
<g transform="translate(0.000000,512.000000) scale(0.100000,-0.100000)">
	<path class="st0" d="M2397,5096c-32-13-75-36-95-50c-21-14-526-515-1124-1113C302,3055,87,2835,66,2793c-96-194-64-406,83-554
		c92-91,209-139,343-139h68v-800c0-541,4-816,11-852c38-182,185-347,367-410c66-23,71-23,554-23c476,0,487,0,514,21
		c15,11,37,33,48,48c21,27,21,40,26,695l5,668l30,49c38,61,115,110,189,119c28,4,168,5,311,3l260-3l53-29c50-28,82-61,113-116
		c11-21,15-144,19-692c5-654,5-667,26-694c11-15,33-37,48-48c27-21,38-21,514-21c483,0,488,0,554,23c182,63,329,228,367,410
		c7,36,11,311,11,852v800h68c188,0,352,100,433,265c34,69,34,71,34,205c0,228,115,93-1169,1376C2670,5223,2798,5113,2580,5118
		C2467,5120,2450,5118,2397,5096z M2644,4810c59-28,2149-2121,2171-2172c21-51,19-94-6-144c-37-77-68-88-261-94c-181-5-194-9-242-74
		c-21-27-21-38-26-934l-5-907l-28-47c-15-26-42-59-60-72c-70-54-91-56-473-56h-354v560c0,367-4,577-11,612c-39,188-190,350-384,411
		c-66,21-88,22-395,22c-358,0-376-2-504-67c-127-64-245-222-275-366c-7-35-11-245-11-612V310h-354c-382,0-403,2-473,56
		c-18,13-45,46-60,72l-28,47l-5,907c-5,896-5,907-26,934c-48,65-61,69-242,74c-193,6-224,17-261,94c-25,50-27,93-6,144
		c21,50,2112,2143,2170,2172C2546,4835,2593,4835,2644,4810z"/>
</g>
</svg>
