<?xml version="1.0" encoding="utf-8"?>
<!-- Generator: Adobe Illustrator 24.1.0, SVG Export Plug-In . SVG Version: 6.00 Build 0)  -->
<svg version="1.1" id="Layer_1" xmlns="http://www.w3.org/2000/svg" xmlns:xlink="http://www.w3.org/1999/xlink" x="0px" y="0px"
	 viewBox="0 0 512 512" style="enable-background:new 0 0 512 512;" xml:space="preserve">
<style type="text/css">
	.st0{fill:#B2B2B2;}
</style>
<g transform="translate(0.000000,512.000000) scale(0.100000,-0.100000)">
	<path class="st0" d="M1717,5109c-92-22-185-97-226-183c-33-67-41-142-41-383v-223H872H293l-44-23c-151-80-142-296,16-368
		c34-16,67-19,206-19h167l6-52c3-29,73-825,155-1768S953,344,959,307c23-146,119-257,252-293c80-21,2618-21,2698,0
		c131,35,227,145,251,287c6,35,78,838,160,1784c83,946,153,1744,156,1773l6,52h167c139,0,172,3,206,19c158,72,167,288,16,368l-44,23
		h-579h-578v223c0,241-8,316-41,383c-30,63-100,131-167,162l-57,27l-825,2C2118,5118,1738,5114,1717,5109z M3250,4510v-190h-690
		h-690v190v190h690h690V4510z M4060,3890c0-10-67-788-150-1727c-82-939-150-1716-150-1725c0-17-59-18-1200-18
		c-1147,0-1200,1-1200,18c0,10-67,787-150,1727c-82,940-150,1717-150,1727c0,17,64,18,1500,18C4045,3910,4060,3910,4060,3890z"/>
</g>
</svg>
