<svg version="1.1" xmlns="http://www.w3.org/2000/svg" viewBox="0 0 1000 100" preserveAspectRatio="none">
<g>
	<path d="M0.001,17.551c2.06,1.367,23.544-0.193,23.992,4.629c-2.606-0.215-5.125-1.182-7.688,0.985
		c2.23,2.947,3.959-1.289,5.272,2.791c2.685,2.6,3.505-3.299,4.696-3.601c5.397,2.41,12.335,5.379,15.699,8.884
		c2.835-0.597,7.537,2.226,10.144,0.429c-6.335-5.35-13.863-9.958-19.937-13.227c2.183,0.946,4.633-0.051,6.809-1.903
		c-1.088,2.324-0.297,4.784,0.421,5.263l3.86,0.283l-0.448,0.371l3.866,0.283c-1.831-0.947-0.487-4.873,2.65-5.028l1.049,0.869
		c2.279-2.255,23.255-16.733,25.49-18.578c1.451,0.917,2.28,0.557,3.471,0.634l0.05-0.39c-0.277,4.812,5.639-0.83,5.74,4.471
		c1.958,0.146,3.959-0.127,4.247-2.138c5.512-2.07,8.202,7.557,14.051,3.477l0.535,4.979c3.988,0.705,1.763-3.982,7.221-1.913
		c1.409,1.757,5.179,4.521,8.26,6.023c17.095,0.917,34.169,7.761,51.114,8.728c-0.343-7.302-6.956-0.576-6.668-6.083
		c28.722,1.814,62.569-2.099,93.563,1.776c11.159,0.449,18.744,10.633,30.152,11.559l-1.611,0.781
		c2.793,1.602,25.155-12.047,27.541-6.785c9.87,1.533,7.088,5.243,16.51,3.114c1.851,3.572,3.905,5.809,7.586,4.549
		c4.33-1.298,8.586-2.46,12.897-3.552c9.254-0.51,19.716,0.8,30.143-1.212c-6.542-5.339,0.878-11.646,13.546,3.437
		c4.998,0.859,5.789-5.397,9.935-2.166c4.281-3.983,9.996-7.107,15.089-10.633c23.411-1.317,51.625,13.327,78.908,16.704
		c1.421-0.205,2.816-0.527,4.159-0.889c4.551,4.326,78.396-18.834,80.651-11.325c0.978-0.839,2.965-0.945,2.906-2.567
		c12.906-0.957,22.826,4.86,36.064,3.916c-0.294-0.069-0.763-0.167-1.229-0.195c24.904-3.094,53.031-1.171,75.096-3.729
		c4.912,2.655,9.021,7.39,14.765,5.769c24.016-4.705,54.303-8.395,82.28-10.446c26.019-1.454,53.127,2.479,78.16-2.312
		c37.461,2.625,74.476,7.498,111.453,16.021l-0.244-1.895c7.947,6.384,8.467-0.361,17.779,7.564V0H0.001V17.551z"/>
</g>
</svg>
