<svg version="1.1" xmlns="http://www.w3.org/2000/svg" viewBox="0 0 1000 100" preserveAspectRatio="none">
<g>
	<path d="M0,100.253V6.047C6.071,2.334,15.364,0,25.577,0c9.7,0,18.433,2.148,24.625,5.548c5.53-2.052,12.284-3.224,19.563-3.224
		c10.395,0,19.673,2.423,25.905,6.252c4.381-1.054,9.255-1.669,14.403-1.669c5.221,0,10.164,0.634,14.584,1.709
		c6.153-4.503,16.253-7.443,27.687-7.443c9.314,0,17.744,1.952,23.877,5.119c5.301-1.777,11.61-2.813,18.384-2.813
		c9.29,0,17.703,1.935,23.834,5.09c4.884-1.417,10.393-2.237,16.377-2.237c5.64,0,10.86,0.732,15.528,1.992
		c6.076-3.546,15.146-5.783,25.109-5.783c9.708,0,18.433,2.131,24.615,5.53c5.543-2.041,12.283-3.233,19.564-3.233
		c10.395,0,19.685,2.434,25.905,6.262c4.381-1.056,9.265-1.671,14.402-1.671c5.211,0,10.164,0.615,14.583,1.709
		c6.154-4.513,16.253-7.451,27.688-7.451c9.313,0,17.744,1.963,23.887,5.128c5.291-1.798,11.6-2.832,18.383-2.832
		c9.284,0,17.694,1.954,23.824,5.098c4.885-1.406,10.402-2.226,16.387-2.226c5.554,0,10.681,0.692,15.293,1.934
		c4.613-1.24,9.763-1.934,15.311-1.934c5.979,0,11.479,0.818,16.371,2.226c6.134-3.144,14.555-5.098,23.834-5.098
		c6.776,0,13.068,1.045,18.383,2.832c6.135-3.156,14.574-5.128,23.893-5.128c11.41,0,21.512,2.938,27.664,7.451
		c4.435-1.094,9.389-1.709,14.594-1.709c5.146,0,10.051,0.615,14.397,1.671c6.231-3.828,15.53-6.262,25.903-6.262
		c7.297,0,14.047,1.192,19.574,3.233c6.191-3.399,14.905-5.53,24.615-5.53c9.963,0,19.047,2.237,25.134,5.783
		c4.667-1.26,9.876-1.992,15.53-1.992c5.987,0,11.478,0.82,16.383,2.237c6.104-3.137,14.543-5.09,23.832-5.09
		c6.778,0,13.09,1.035,18.385,2.813c6.134-3.145,14.572-5.119,23.892-5.119c11.409,0,21.51,2.939,27.662,7.443
		c4.437-1.075,9.387-1.709,14.593-1.709c5.158,0,10.023,0.616,14.398,1.669c6.231-3.828,15.529-6.252,25.904-6.252
		c7.286,0,14.047,1.19,19.573,3.224c6.173-3.397,14.906-5.527,24.616-5.527c10.218,0,19.517,2.344,25.571,6.057v93.924v0.252H0
		L0,100.253z"/>
</g>
</svg>
