<svg version="1.1" xmlns="http://www.w3.org/2000/svg" viewBox="0 0 1000 100" preserveAspectRatio="none">
<g>
	<path d="M999.999,35.459c0,0-87.259,21.327-160.944,22.848c-73.679,1.527-165.941-28.313-278.637-22.184
		c-86.689,4.706-95.029,24.863-233.854,28.113C248.17,66.084,152.228,37.829,89.584,33.08c-62.668-4.745-89.582,1.773-89.582,1.773
		V100H1000L999.999,35.459L999.999,35.459z"/>
</g>
<g opacity="0.3">
	<path d="M999.996,95.757l-63.871,4.197L611,82.236c0,0,175.028-45.329,388.976-58.805"/>
	<path d="M0,16.414c87.822-1.052,182.119,8.674,275.362,37.445C359.19,79.741,440.854,72.813,495.173,71.66v17.275H0"/>
</g>
<g opacity="0.3">
	<path d="M999.979,35.985c-61.493-25.479-234.28-72.828-548.608,14.014c-304.833,84.194-451.372,0-451.372,0V81.93
		c0,0,841.943,0.491,999.765,0.581L999.979,35.985z"/>
</g>
<g opacity="0.3">
	<path d="M0,30.62C58.738,8.486,218.326-30.65,504.261,42.464c308.725,78.948,467.854,0,467.854,0V74.32c0,0-814.624,0-971.863,0
		L0,30.62z"/>
</g>
</svg>
