<svg version="1.1" xmlns="http://www.w3.org/2000/svg" viewBox="0 0 1000 100" preserveAspectRatio="none">
<g>
	<path d="M0.005,7.423c1.098,0.401,2.852,0.685,4.628,0.685c6.221,0,6.221-3.418,12.44-3.418s6.221,3.418,12.439,3.418
		c6.222,0,6.222-3.418,12.441-3.418c6.216,0,6.216,3.418,12.436,3.418c6.229,0,6.229-3.418,12.451-3.418
		c6.221,0,6.221,3.418,12.44,3.418c6.219,0,6.221-3.418,12.45-3.418c6.217,0,6.217,3.418,12.437,3.418
		c6.229,0,6.229-3.418,12.451-3.418c6.22,0,6.22,3.418,12.452,3.418c6.22,0,6.22-3.418,12.437-3.418c6.22,0,6.22,3.418,12.44,3.418
		c6.229,0,6.229-3.418,12.449-3.418c6.222,0,6.222,3.418,12.451,3.418c6.22,0,6.22-3.418,12.437-3.418
		c6.22,0,6.22,3.418,12.44,3.418c6.229,0,6.229-3.418,12.44-3.418c6.229,0,6.229,3.418,12.45,3.418
		c6.216,0,6.216-3.418,12.437-3.418s6.221,3.418,12.44,3.418c6.229,0,6.229-3.418,12.44-3.418c6.229,0,6.229,3.418,12.438,3.418
		c6.229,0,6.229-3.418,12.452-3.418c6.22,0,6.22,3.418,12.449,3.418c6.223,0,6.223-3.418,12.441-3.418
		c6.229,0,6.229,3.418,12.446,3.418c6.221,0,6.221-3.418,12.439-3.418c6.221,0,6.221,3.418,12.45,3.418
		c6.222,0,6.222-3.418,12.441-3.418c6.217,0,6.217,3.418,12.437,3.418c6.221,0,6.221-3.418,12.441-3.418
		c6.22,0,6.221,3.418,12.438,3.418c6.222,0,6.223-3.418,12.447-3.418c6.22,0,6.22,3.418,12.441,3.418
		c6.219,0,6.219-3.418,12.449-3.418c6.222,0,6.222,3.418,12.441,3.418c6.221,0,6.221-3.418,12.437-3.418
		c6.221,0,6.221,3.418,12.45,3.418c6.222,0,6.222-3.418,12.44-3.418c6.218,0,6.22,3.418,12.439,3.418
		c6.228,0,6.228-3.418,12.438-3.418c6.219,0,6.219,3.418,12.438,3.418c6.229,0,6.222-3.418,12.451-3.418
		c6.219,0,6.219,3.418,12.42,3.418c6.23,0,6.23-3.418,12.461-3.418c6.211,0,6.211,3.418,12.441,3.418
		c6.211,0,6.211-3.418,12.441-3.418c6.211,0,6.211,3.418,12.432,3.418c6.229,0,6.229-3.418,12.439-3.418
		c6.221,0,6.221,3.418,12.45,3.418c6.222,0,6.222-3.418,12.439-3.418c6.211,0,6.211,3.418,12.44,3.418
		c6.212,0,6.212-3.418,12.441-3.418s6.229,3.418,12.439,3.418c6.221,0,6.221-3.418,12.44-3.418s6.222,3.418,12.439,3.418
		c6.221,0,6.223-3.418,12.451-3.418c6.223,0,6.223,3.418,12.44,3.418c6.219,0,6.219-3.418,12.433-3.418
		c6.229,0,6.229,3.418,12.461,3.418c6.211,0,6.211-3.418,12.438-3.418c6.211,0,6.211,3.418,12.441,3.418
		c6.221,0,6.221-3.418,12.438-3.418c6.222,0,6.224,3.418,12.441,3.418c6.229,0,6.229-3.418,12.451-3.418
		c6.221,0,6.221,3.418,12.432,3.418c6.229,0,6.229-3.418,12.439-3.418c6.229,0,6.229,3.418,12.438,3.418
		c6.232,0,6.232-3.418,12.463-3.418c6.209,0,6.209,3.418,12.439,3.418c6.213,0,6.213-3.418,12.438-3.418
		c6.222,0,6.222,3.418,12.451,3.418c6.222,0,6.222-3.418,12.441-3.418c6.219,0,6.221,3.418,12.449,3.418
		c6.231,0,6.231-3.418,12.44-3.418c6.23,0,6.23,3.418,12.441,3.418c6.229,0,6.229-3.418,12.461-3.418
		c6.211,0,6.211,3.418,12.432,3.418c6.229,0,6.229-3.418,12.461-3.418c6.222,0,6.222,3.418,12.451,3.418v93.348
		c0,0-906.31,0-1000.082,0"/>
	<path d="M0.005,2.462c1.202,0.605,2.593,1.055,4.829,1.055c3.032,0,4.531-0.839,6.104-1.72C12.515,0.919,14.155,0,17.343,0
		c3.194,0,4.824,0.919,6.402,1.797c1.571,0.88,3.051,1.72,6.067,1.72c3.032,0,4.512-0.839,6.068-1.72
		C37.453,0.919,39.074,0,42.263,0s4.811,0.919,6.381,1.797c1.559,0.88,3.038,1.72,6.061,1.72c3.018,0,4.507-0.839,6.06-1.72
		C62.33,0.919,63.943,0,67.14,0c3.193,0,4.815,0.919,6.382,1.797c1.563,0.88,3.042,1.72,6.06,1.72c3.033,0,4.512-0.839,6.069-1.72
		C87.213,0.919,88.833,0,92.03,0s4.81,0.919,6.382,1.797c1.557,0.88,3.027,1.72,6.06,1.72c3.027,0,4.497-0.839,6.061-1.72
		C112.099,0.919,113.71,0,116.908,0c3.204,0,4.81,0.919,6.381,1.797c1.559,0.88,3.042,1.72,6.06,1.72
		c3.032,0,4.511-0.839,6.069-1.72C136.979,0.919,138.597,0,141.799,0c3.199,0,4.81,0.919,6.378,1.797
		c1.563,0.88,3.042,1.72,6.064,1.72c3.017,0,4.497-0.839,6.059-1.72C161.867,0.919,163.479,0,166.676,0
		c3.203,0,4.811,0.919,6.382,1.797c1.558,0.88,3.026,1.72,6.06,1.72s4.511-0.839,6.059-1.72C186.749,0.919,188.354,0,191.558,0
		c3.198,0,4.818,0.919,6.376,1.797c1.572,0.88,3.042,1.72,6.07,1.72c3.021,0,4.501-0.839,6.064-1.72
		C211.625,0.919,213.247,0,216.445,0c3.203,0,4.81,0.919,6.381,1.797c1.559,0.88,3.027,1.72,6.06,1.72
		c3.027,0,4.513-0.839,6.061-1.72C236.514,0.919,238.125,0,241.327,0c3.198,0,4.819,0.919,6.377,1.797
		c1.562,0.88,3.041,1.72,6.058,1.72c3.032,0,4.512-0.839,6.07-1.72C261.394,0.919,263.015,0,266.214,0
		c3.197,0,4.81,0.919,6.38,1.797c1.56,0.88,3.028,1.72,6.061,1.72c3.027,0,4.497-0.839,6.06-1.72C286.28,0.919,287.893,0,291.09,0
		c3.202,0,4.815,0.919,6.381,1.797c1.563,0.88,3.043,1.72,6.061,1.72c3.03,0,4.511-0.839,6.067-1.72
		C311.162,0.919,312.782,0,315.98,0c3.188,0,4.811,0.919,6.382,1.797c1.558,0.88,3.036,1.72,6.059,1.72
		c3.019,0,4.498-0.839,6.059-1.72C336.048,0.919,337.659,0,340.857,0c3.201,0,4.809,0.919,6.381,1.797
		c1.563,0.88,3.031,1.72,6.059,1.72c3.033,0,4.512-0.839,6.059-1.72C360.928,0.919,362.548,0,365.738,0
		c3.197,0,4.818,0.919,6.375,1.797c1.563,0.88,3.043,1.72,6.074,1.72c3.019,0,4.497-0.839,6.059-1.72
		C385.814,0.919,387.424,0,390.624,0c3.202,0,4.809,0.919,6.381,1.797c1.558,0.88,3.041,1.72,6.058,1.72
		c3.033,0,4.513-0.839,6.07-1.72C410.695,0.919,412.311,0,415.514,0c3.198,0,4.81,0.919,6.376,1.797
		c1.563,0.88,3.042,1.72,6.061,1.72c3.021,0,4.5-0.839,6.063-1.72C435.581,0.919,437.191,0,440.391,0c3.203,0,4.81,0.919,6.38,1.797
		c1.56,0.88,3.038,1.72,6.06,1.72c3.026,0,4.512-0.839,6.068-1.72C460.462,0.919,462.077,0,465.281,0
		c3.188,0,4.81,0.919,6.377,1.797c1.563,0.88,3.029,1.72,6.058,1.72c3.033,0,4.513-0.839,6.075-1.72
		C485.349,0.919,486.969,0,490.166,0s4.8,0.919,6.383,1.797c1.557,0.88,3.035,1.72,6.059,1.72c3.026,0,4.512-0.839,6.071-1.72
		C510.232,0.919,511.855,0,515.058,0c3.193,0,4.793,0.919,6.375,1.797c1.563,0.88,3.027,1.72,6.056,1.72
		c3.018,0,4.492-0.839,6.063-1.72C535.116,0.919,536.726,0,539.929,0c3.193,0,4.806,0.919,6.388,1.797
		c1.563,0.88,3.037,1.72,6.055,1.72c3.025,0,4.492-0.839,6.055-1.72C559.989,0.919,561.61,0,564.813,0
		c3.193,0,4.806,0.919,6.388,1.797c1.563,0.88,3.037,1.72,6.055,1.72c3.027,0,4.502-0.839,6.056-1.72
		C584.874,0.919,586.494,0,589.697,0s4.807,0.919,6.377,1.797c1.563,0.88,3.037,1.72,6.063,1.72c3.019,0,4.515-0.839,6.074-1.72
		C609.755,0.919,611.386,0,614.579,0c3.201,0,4.813,0.919,6.387,1.797c1.543,0.88,3.025,1.72,6.053,1.72
		c3.039,0,4.515-0.839,6.066-1.72C634.657,0.919,636.259,0,639.462,0c3.201,0,4.813,0.919,6.387,1.797
		c1.563,0.88,3.035,1.72,6.056,1.72c3.026,0,4.502-0.839,6.063-1.72C659.539,0.919,661.143,0,664.354,0
		c3.195,0,4.797,0.919,6.377,1.797c1.563,0.88,3.047,1.72,6.066,1.72c3.018,0,4.49-0.839,6.043-1.72
		C684.414,0.919,686.033,0,689.237,0c3.193,0,4.814,0.919,6.375,1.797c1.564,0.88,3.05,1.72,6.074,1.72
		c3.027,0,4.492-0.839,6.045-1.72C709.293,0.919,710.916,0,714.108,0c3.203,0,4.813,0.919,6.396,1.797
		c1.553,0.88,3.035,1.72,6.063,1.72c3.006,0,4.502-0.839,6.056-1.72C734.185,0.919,735.808,0,739.009,0
		c3.186,0,4.813,0.919,6.369,1.797c1.563,0.88,3.045,1.72,6.073,1.72c3.025,0,4.5-0.839,6.054-1.72
		C759.067,0.919,760.688,0,763.894,0c3.201,0,4.803,0.919,6.387,1.797c1.552,0.88,3.025,1.72,6.054,1.72
		c3.02,0,4.512-0.839,6.073-1.72C783.961,0.919,785.584,0,788.784,0c3.193,0,4.814,0.919,6.377,1.797
		c1.563,0.88,3.048,1.72,6.058,1.72c3.035,0,4.51-0.839,6.063-1.72C808.853,0.919,810.465,0,813.657,0
		c3.205,0,4.814,0.919,6.388,1.797c1.563,0.88,3.049,1.72,6.073,1.72c3.009,0,4.482-0.839,6.045-1.72
		C833.735,0.919,835.338,0,838.551,0c3.192,0,4.813,0.919,6.377,1.797c1.563,0.88,3.049,1.72,6.071,1.72
		c3.027,0,4.505-0.839,6.058-1.72C858.619,0.919,860.24,0,863.432,0c3.192,0,4.813,0.919,6.396,1.797
		c1.554,0.88,3.029,1.72,6.058,1.72c3.018,0,4.51-0.839,6.073-1.72C883.499,0.919,885.131,0,888.323,0
		c3.201,0,4.824,0.919,6.387,1.797c1.563,0.88,3.048,1.72,6.056,1.72c3.026,0,4.512-0.839,6.074-1.72
		C908.402,0.919,910.023,0,913.227,0c3.192,0,4.807,0.919,6.387,1.797c1.545,0.88,3.027,1.72,6.055,1.72
		c3.028,0,4.504-0.839,6.064-1.72C933.283,0.919,934.906,0,938.107,0c3.205,0,4.816,0.919,6.389,1.797
		c1.563,0.88,3.037,1.72,6.056,1.72c3.049,0,4.514-0.839,6.073-1.72C958.188,0.919,959.81,0,963.013,0
		c3.182,0,4.805,0.919,6.387,1.797c1.551,0.88,3.026,1.72,6.055,1.72c3.019,0,4.476-0.839,6.035-1.72
		C983.022,0.919,984.635,0,987.838,0c3.192,0,4.735,0.919,6.286,1.816c1.543,0.879,2.99,1.699,5.921,1.699v0.653
		c-2.931,0-4.689-0.906-6.24-1.785c-1.556-0.898-2.979-1.72-6.025-1.72c-3.027,0-4.455,0.82-5.998,1.709
		c-1.541,0.89-3.143,1.796-6.336,1.796c-3.201,0-4.814-0.906-6.377-1.796c-1.563-0.889-3.037-1.709-6.063-1.709
		c-3.037,0-4.502,0.82-6.064,1.709c-1.563,0.89-3.176,1.796-6.389,1.796c-3.185,0-4.804-0.906-6.375-1.796
		c-1.563-0.889-3.037-1.709-6.066-1.709c-3.016,0-4.49,0.82-6.053,1.709c-1.572,0.89-3.185,1.796-6.387,1.796
		c-3.203,0-4.816-0.906-6.388-1.796c-1.563-0.889-3.047-1.709-6.055-1.709c-3.027,0-4.512,0.82-6.064,1.709
		c-1.571,0.89-3.174,1.796-6.396,1.796c-3.184,0-4.807-0.906-6.367-1.796c-1.563-0.889-3.057-1.709-6.074-1.709
		c-3.024,0-4.489,0.82-6.053,1.709c-1.563,0.89-3.186,1.796-6.389,1.796c-3.193,0-4.806-0.906-6.387-1.796
		c-1.554-0.889-3.048-1.709-6.064-1.709c-3.016,0-4.49,0.82-6.045,1.709c-1.582,0.89-3.182,1.796-6.387,1.796
		c-3.201,0-4.806-0.906-6.388-1.796c-1.563-0.889-3.047-1.709-6.063-1.709c-3.019,0-4.502,0.82-6.064,1.709
		c-1.553,0.89-3.174,1.796-6.366,1.796c-3.201,0-4.822-0.906-6.388-1.796c-1.563-0.889-3.047-1.709-6.073-1.709
		c-3.019,0-4.492,0.82-6.056,1.709c-1.563,0.89-3.186,1.796-6.387,1.796c-3.191,0-4.805-0.906-6.387-1.796
		c-1.543-0.889-3.027-1.709-6.045-1.709c-3.021,0-4.515,0.82-6.074,1.709c-1.553,0.89-3.174,1.796-6.377,1.796
		s-4.806-0.906-6.387-1.796c-1.552-0.889-3.027-1.709-6.056-1.709c-3.02,0-4.502,0.82-6.055,1.709
		c-1.582,0.89-3.184,1.796-6.396,1.796c-3.194,0-4.797-0.906-6.377-1.796c-1.563-0.889-3.047-1.709-6.055-1.709
		c-3.027,0-4.512,0.82-6.063,1.709c-1.564,0.89-3.185,1.796-6.38,1.796c-3.202,0-4.813-0.906-6.395-1.796
		c-1.556-0.889-3.039-1.709-6.066-1.709c-3.008,0-4.479,0.82-6.055,1.709c-1.562,0.89-3.183,1.796-6.387,1.796
		c-3.193,0-4.806-0.906-6.365-1.796c-1.563-0.889-3.047-1.709-6.074-1.709c-3.026,0-4.502,0.82-6.055,1.709
		c-1.563,0.89-3.185,1.796-6.377,1.796c-3.193,0-4.813-0.906-6.377-1.796c-1.564-0.889-3.045-1.709-6.074-1.709
		c-3.016,0-4.492,0.82-6.055,1.709c-1.563,0.89-3.183,1.796-6.396,1.796c-3.176,0-4.795-0.906-6.379-1.796
		c-1.553-0.889-3.025-1.709-6.055-1.709c-3.019,0-4.511,0.82-6.064,1.709c-1.563,0.89-3.184,1.796-6.377,1.796
		c-3.201,0-4.813-0.906-6.385-1.796c-1.563-0.889-3.037-1.709-6.057-1.709c-3.025,0-4.502,0.82-6.063,1.709
		c-1.572,0.89-3.176,1.796-6.377,1.796c-3.203,0-4.813-0.906-6.387-1.796c-1.563-0.889-3.049-1.709-6.064-1.709
		c-3.018,0-4.491,0.82-6.045,1.709c-1.582,0.89-3.184,1.796-6.387,1.796s-4.806-0.906-6.387-1.796
		c-1.563-0.889-3.048-1.709-6.064-1.709c-3.016,0-4.5,0.82-6.045,1.709c-1.57,0.89-3.182,1.796-6.387,1.796
		c-3.201,0-4.813-0.906-6.388-1.796c-1.563-0.889-3.047-1.709-6.055-1.709c-3.025,0-4.512,0.82-6.064,1.709
		c-1.561,0.89-3.172,1.796-6.375,1.796c-3.202,0-4.813-0.906-6.387-1.796c-1.563-0.889-3.037-1.709-6.057-1.709
		c-3.025,0-4.5,0.82-6.063,1.709c-1.571,0.89-3.174,1.796-6.377,1.796c-3.202,0-4.808-0.906-6.381-1.796
		c-1.557-0.889-3.037-1.709-6.059-1.709c-3.019,0-4.502,0.82-6.061,1.709c-1.559,0.89-3.179,1.796-6.381,1.796
		c-3.199,0-4.81-0.906-6.376-1.796c-1.563-0.889-3.043-1.709-6.059-1.709c-3.042,0-4.513,0.82-6.069,1.709
		c-1.563,0.89-3.185,1.796-6.381,1.796c-3.198,0-4.81-0.906-6.382-1.796c-1.56-0.889-3.038-1.709-6.061-1.709
		c-3.018,0-4.497,0.82-6.059,1.709c-1.568,0.89-3.179,1.796-6.376,1.796c-3.193,0-4.815-0.906-6.381-1.796
		c-1.564-0.889-3.043-1.709-6.061-1.709c-3.031,0-4.511,0.82-6.067,1.709c-1.564,0.89-3.187,1.796-6.382,1.796
		c-3.197,0-4.811-0.906-6.381-1.796c-1.559-0.889-3.038-1.709-6.06-1.709c-3.018,0-4.497,0.82-6.059,1.709
		c-1.567,0.89-3.18,1.796-6.377,1.796c-3.204,0-4.811-0.906-6.382-1.796c-1.563-0.889-3.041-1.709-6.059-1.709
		c-3.032,0-4.502,0.82-6.06,1.709c-1.563,0.89-3.192,1.796-6.381,1.796s-4.81-0.906-6.377-1.796
		c-1.563-0.889-3.042-1.709-6.059-1.709c-3.022,0-4.502,0.82-6.064,1.709c-1.565,0.89-3.179,1.796-6.376,1.796
		c-3.204,0-4.809-0.906-6.38-1.796c-1.558-0.889-3.038-1.709-6.061-1.709c-3.018,0-4.501,0.82-6.059,1.709
		c-1.559,0.89-3.179,1.796-6.382,1.796c-3.199,0-4.81-0.906-6.377-1.796c-1.563-0.889-3.041-1.709-6.069-1.709
		c-3.021,0-4.5,0.82-6.059,1.709c-1.572,0.89-3.183,1.796-6.381,1.796c-3.188,0-4.811-0.906-6.381-1.796
		c-1.56-0.889-3.028-1.709-6.061-1.709c-3.027,0-4.507,0.82-6.061,1.709c-1.567,0.89-3.188,1.796-6.382,1.796
		c-3.196,0-4.818-0.906-6.375-1.796c-1.563-0.889-3.042-1.709-6.061-1.709c-3.021,0-4.5,0.82-6.058,1.709
		c-1.572,0.89-3.183,1.796-6.382,1.796c-3.198,0-4.811-0.906-6.382-1.796c-1.558-0.889-3.037-1.709-6.06-1.709
		c-3.017,0-4.498,0.82-6.06,1.709c-1.567,0.89-3.179,1.796-6.376,1.796c-3.193,0-4.811-0.906-6.381-1.796
		c-1.563-0.889-3.042-1.709-6.061-1.709c-3.032,0-4.502,0.82-6.06,1.709c-1.563,0.89-3.184,1.796-6.383,1.796
		c-3.196,0-4.809-0.906-6.375-1.796c-1.563-0.889-3.032-1.709-6.064-1.709c-3.027,0-4.498,0.82-6.061,1.709
		c-1.566,0.89-3.178,1.796-6.377,1.796c-3.192,0-4.81-0.906-6.382-1.796c-1.557-0.889-3.041-1.709-6.059-1.709
		c-3.032,0-4.502,0.82-6.07,1.709c-1.563,0.89-3.178,1.796-6.381,1.796c-3.188,0-4.809-0.906-6.376-1.796
		c-1.563-0.889-3.042-1.709-6.059-1.709c-3.022,0-4.502,0.82-6.064,1.709c-1.567,0.89-3.179,1.796-6.376,1.796
		c-3.203,0-4.809-0.906-6.381-1.796c-1.586-0.869-3.056-1.709-6.088-1.709c-3.033,0-4.513,0.84-6.061,1.72
		C84.41,3.272,82.804,4.18,79.6,4.18c-3.198,0-4.818-0.907-6.376-1.796c-1.573-0.879-3.052-1.72-6.069-1.72
		c-3.021,0-4.502,0.84-6.063,1.72c-1.557,0.889-3.179,1.796-6.377,1.796c-3.203,0-4.811-0.907-6.382-1.796
		c-1.56-0.879-3.038-1.72-6.069-1.72c-3.027,0-4.501,0.84-6.069,1.72c-1.571,0.889-3.188,1.796-6.382,1.796
		c-3.188,0-4.818-0.907-6.387-1.796c-1.573-0.879-3.052-1.72-6.084-1.72c-3.017,0-4.506,0.84-6.079,1.72
		C9.685,3.272,8.054,4.18,4.86,4.18c-2.188,0-3.656-0.438-4.857-0.986"/>
</g>
</svg>
