<svg version="1.1" xmlns="http://www.w3.org/2000/svg" viewBox="0 0 1000 100" preserveAspectRatio="none">
<g opacity="0.3">
	<path d="M999.979,35.985c-61.493-25.479-234.28-72.828-548.608,14.014C146.539,134.193,0,49.999,0,49.999V81.93
		c0,0,841.944,0.491,999.764,0.581L999.979,35.985z"/>
</g>
<g opacity="0.3">
	<path d="M0,30.62C58.738,8.486,218.326-30.65,504.261,42.464c308.724,78.948,467.853,0,467.853,0V74.32
		c0,0-814.625,0-971.863,0L0,30.62z"/>
</g>
<g opacity="0.3">
	<path d="M999.996,95.757l-63.871,4.197L611,82.236c0,0,175.029-45.329,388.978-58.805"/>
	<path d="M0,16.414c87.822-1.052,182.119,8.674,275.362,37.445C359.19,79.741,440.854,72.813,495.173,71.66v17.275
		H0"/>
</g>
<g>
	<path d="M1000,35.459c0,0-87.26,21.327-160.945,22.848c-73.678,1.527-165.94-28.313-278.637-22.184
		c-86.69,4.706-95.029,24.863-233.854,28.113C248.17,66.084,152.228,37.829,89.584,33.08c-62.668-4.745-89.582,1.773-89.582,1.773
		V100H1000V35.459L1000,35.459z"/>
</g>
</svg>
