<svg version="1.1" xmlns="http://www.w3.org/2000/svg" viewBox="0 0 1000 100" preserveAspectRatio="none">
<g>
	<path opacity="0.4" d="M801.832,0c-0.496,0-0.996,0-1.494,0
		c-74.981,0.002-168.455,2.787-275.86,11.67C467.2,16.405,411.949,22.558,360.18,29.374c52.78,1.692,109.123,4.602,167.435,9.24
		C815.371,61.534,1000,100,1000,100v-0.001V7.84C1000,7.84,926.822,0.059,801.832,0z"/>
	<path d="M360.179,29.374C152.495,22.717,0,34.921,0,34.921V95v4.999V100h29.5H1000
		c0,0-184.629-38.466-472.387-61.386C469.302,33.976,412.959,31.066,360.179,29.374z"/>
</g>
</svg>
